<svg width="1440" height="1024" viewBox="0 0 1440 1024" fill="none" xmlns="http://www.w3.org/2000/svg">
  <defs>
    <linearGradient id="bgBase" x1="170" y1="54" x2="1238" y2="964" gradientUnits="userSpaceOnUse">
      <stop offset="0" stop-color="#0E0B0A"/>
      <stop offset="0.38" stop-color="#15100D"/>
      <stop offset="0.72" stop-color="#13100E"/>
      <stop offset="1" stop-color="#090807"/>
    </linearGradient>
    <radialGradient id="warmCore" cx="0" cy="0" r="1" gradientUnits="userSpaceOnUse" gradientTransform="translate(724 476) rotate(90) scale(488 324)">
      <stop stop-color="#C8821F" stop-opacity="0.26"/>
      <stop offset="0.42" stop-color="#9D5E10" stop-opacity="0.16"/>
      <stop offset="1" stop-color="#9D5E10" stop-opacity="0"/>
    </radialGradient>
    <radialGradient id="greenMist" cx="0" cy="0" r="1" gradientUnits="userSpaceOnUse" gradientTransform="translate(1034 328) rotate(149) scale(392 276)">
      <stop stop-color="#255E4B" stop-opacity="0.22"/>
      <stop offset="1" stop-color="#255E4B" stop-opacity="0"/>
    </radialGradient>
    <radialGradient id="leftMist" cx="0" cy="0" r="1" gradientUnits="userSpaceOnUse" gradientTransform="translate(286 298) rotate(27) scale(416 290)">
      <stop stop-color="#71451A" stop-opacity="0.18"/>
      <stop offset="1" stop-color="#71451A" stop-opacity="0"/>
    </radialGradient>
    <linearGradient id="beam" x1="720" y1="140" x2="720" y2="890" gradientUnits="userSpaceOnUse">
      <stop stop-color="#D08B24" stop-opacity="0"/>
      <stop offset="0.18" stop-color="#D08B24" stop-opacity="0.1"/>
      <stop offset="0.5" stop-color="#D08B24" stop-opacity="0.18"/>
      <stop offset="0.82" stop-color="#D08B24" stop-opacity="0.08"/>
      <stop offset="1" stop-color="#D08B24" stop-opacity="0"/>
    </linearGradient>
    <linearGradient id="cardFill" x1="720" y1="234" x2="720" y2="792" gradientUnits="userSpaceOnUse">
      <stop stop-color="#191412" stop-opacity="0.88"/>
      <stop offset="1" stop-color="#100D0B" stop-opacity="0.92"/>
    </linearGradient>
    <linearGradient id="cardStroke" x1="504" y1="206" x2="936" y2="820" gradientUnits="userSpaceOnUse">
      <stop stop-color="#5A4325" stop-opacity="0.84"/>
      <stop offset="0.24" stop-color="#A16A24" stop-opacity="0.72"/>
      <stop offset="0.58" stop-color="#614221" stop-opacity="0.46"/>
      <stop offset="1" stop-color="#3D2B1A" stop-opacity="0.84"/>
    </linearGradient>
    <linearGradient id="innerGlow" x1="720" y1="222" x2="720" y2="778" gradientUnits="userSpaceOnUse">
      <stop stop-color="#F3D89F" stop-opacity="0.06"/>
      <stop offset="1" stop-color="#F3D89F" stop-opacity="0.01"/>
    </linearGradient>
    <linearGradient id="buttonPrimary" x1="720" y1="716" x2="720" y2="778" gradientUnits="userSpaceOnUse">
      <stop stop-color="#E0A838"/>
      <stop offset="1" stop-color="#B87419"/>
    </linearGradient>
    <linearGradient id="tabActive" x1="584" y1="420" x2="718" y2="420" gradientUnits="userSpaceOnUse">
      <stop stop-color="#4D3417"/>
      <stop offset="1" stop-color="#71481C"/>
    </linearGradient>
    <filter id="cardShadow" x="458" y="144" width="524" height="718" filterUnits="userSpaceOnUse" color-interpolation-filters="sRGB">
      <feFlood flood-opacity="0" result="BackgroundImageFix"/>
      <feColorMatrix in="SourceAlpha" type="matrix" values="0 0 0 0 0 0 0 0 0 0 0 0 0 0 0 0 0 0 127 0" result="hardAlpha"/>
      <feOffset dy="26"/>
      <feGaussianBlur stdDeviation="24"/>
      <feComposite in2="hardAlpha" operator="out"/>
      <feColorMatrix type="matrix" values="0 0 0 0 0.0313726 0 0 0 0 0.0196078 0 0 0 0 0.00784314 0 0 0 0.68 0"/>
      <feBlend mode="normal" in2="BackgroundImageFix" result="effect1_dropShadow_1_1"/>
      <feBlend mode="normal" in="SourceGraphic" in2="effect1_dropShadow_1_1" result="shape"/>
    </filter>
    <pattern id="gridPattern" x="0" y="0" width="24" height="24" patternUnits="userSpaceOnUse">
      <path d="M24 0H0V24" stroke="#F6E7C4" stroke-opacity="0.03"/>
    </pattern>
  </defs>

  <rect width="1440" height="1024" fill="url(#bgBase)"/>
  <rect width="1440" height="1024" fill="url(#gridPattern)"/>
  <rect x="640" y="120" width="160" height="784" fill="url(#beam)" opacity="0.88"/>
  <circle cx="724" cy="476" r="420" fill="url(#warmCore)"/>
  <circle cx="1034" cy="328" r="360" fill="url(#greenMist)"/>
  <circle cx="286" cy="298" r="360" fill="url(#leftMist)"/>

  <path d="M172 824C278 730 414 680 600 664" stroke="#D99B3A" stroke-opacity="0.16" stroke-width="2"/>
  <path d="M1018 208C1124 242 1206 308 1288 420" stroke="#4A6E59" stroke-opacity="0.18" stroke-width="2"/>
  <path d="M986 786C1110 822 1216 886 1300 972" stroke="#D08B24" stroke-opacity="0.12" stroke-width="2"/>

  <g opacity="0.76">
    <circle cx="194" cy="128" r="2.2" fill="#FFF0D0"/>
    <circle cx="318" cy="246" r="1.8" fill="#D9A24A"/>
    <circle cx="468" cy="110" r="1.6" fill="#F4D39A"/>
    <circle cx="970" cy="156" r="1.6" fill="#F4D39A"/>
    <circle cx="1128" cy="228" r="1.8" fill="#D9A24A"/>
    <circle cx="1234" cy="108" r="2.2" fill="#FFF0D0"/>
    <circle cx="1178" cy="760" r="2" fill="#F1D096"/>
    <circle cx="302" cy="870" r="2" fill="#F1D096"/>
  </g>

  <text x="720" y="92" text-anchor="middle" fill="#D9A54A" font-family="Arial, Helvetica, sans-serif" font-size="18" font-weight="700" letter-spacing="0.24em">
    STARTUP QUEST
  </text>

  <g filter="url(#cardShadow)">
    <rect x="506" y="184" width="428" height="620" rx="34" fill="url(#cardFill)"/>
    <rect x="507" y="185" width="426" height="618" rx="33" stroke="url(#cardStroke)" stroke-width="2"/>
    <rect x="522" y="200" width="396" height="588" rx="26" fill="url(#innerGlow)"/>
  </g>

  <g>
    <rect x="536" y="214" width="124" height="28" rx="14" fill="#241A13"/>
    <rect x="536.8" y="214.8" width="122.4" height="26.4" rx="13.2" stroke="#6D4B24" stroke-width="1.6"/>
    <text x="598" y="233" text-anchor="middle" fill="#D9A54A" font-family="Arial, Helvetica, sans-serif" font-size="11" font-weight="700" letter-spacing="0.12em">
      PORTAL DE ACESSO
    </text>

    <rect x="670" y="214" width="112" height="28" rx="14" fill="#18211A"/>
    <rect x="670.8" y="214.8" width="110.4" height="26.4" rx="13.2" stroke="#33533D" stroke-width="1.6"/>
    <text x="726" y="233" text-anchor="middle" fill="#77B08B" font-family="Arial, Helvetica, sans-serif" font-size="11" font-weight="700" letter-spacing="0.12em">
      ETAPA 1 DE 2
    </text>

    <text x="864" y="232" fill="#7B6A55" font-family="Arial, Helvetica, sans-serif" font-size="11" font-weight="700" letter-spacing="0.16em">
      ATIVACAO
    </text>
    <rect x="864" y="238" width="54" height="6" rx="3" fill="#2B2118"/>
    <rect x="864" y="238" width="18" height="6" rx="3" fill="#D49A33"/>
  </g>

  <text x="550" y="336" fill="#F5ECDD" font-family="Arial, Helvetica, sans-serif" font-size="60" font-weight="700">
    Entre ou crie
  </text>
  <text x="550" y="396" fill="#F5ECDD" font-family="Arial, Helvetica, sans-serif" font-size="60" font-weight="700">
    sua base.
  </text>
  <text x="550" y="436" fill="#A99884" font-family="Arial, Helvetica, sans-serif" font-size="18">
    A primeira entrada precisa parecer um produto premium, claro e marcante.
  </text>

  <g>
    <rect x="550" y="472" width="340" height="56" rx="18" fill="#110E0C"/>
    <rect x="550.8" y="472.8" width="338.4" height="54.4" rx="17.2" stroke="#47311C" stroke-width="1.6"/>
    <rect x="556" y="478" width="164" height="44" rx="14" fill="url(#tabActive)"/>
    <rect x="556.8" y="478.8" width="162.4" height="42.4" rx="13.2" stroke="#C7892F" stroke-opacity="0.34" stroke-width="1.6"/>
    <text x="638" y="507" text-anchor="middle" fill="#F8E5BD" font-family="Arial, Helvetica, sans-serif" font-size="15" font-weight="700">
      Entrar
    </text>
    <text x="804" y="507" text-anchor="middle" fill="#9E8C77" font-family="Arial, Helvetica, sans-serif" font-size="15" font-weight="700">
      Criar conta
    </text>
  </g>

  <g>
    <text x="550" y="582" fill="#E7D4B1" font-family="Arial, Helvetica, sans-serif" font-size="12" font-weight="700" letter-spacing="0.12em">
      E-MAIL
    </text>
    <rect x="550" y="594" width="340" height="64" rx="20" fill="#0D0B0A"/>
    <rect x="550.8" y="594.8" width="338.4" height="62.4" rx="19.2" stroke="#4A3420" stroke-width="1.6"/>
    <circle cx="576" cy="626" r="6" fill="#D49A33"/>
    <text x="594" y="632" fill="#A89988" font-family="Arial, Helvetica, sans-serif" font-size="17">
      voce@startup.quest
    </text>
  </g>

  <g>
    <text x="550" y="694" fill="#E7D4B1" font-family="Arial, Helvetica, sans-serif" font-size="12" font-weight="700" letter-spacing="0.12em">
      SENHA
    </text>
    <rect x="550" y="706" width="340" height="64" rx="20" fill="#0D0B0A"/>
    <rect x="550.8" y="706.8" width="338.4" height="62.4" rx="19.2" stroke="#4A3420" stroke-width="1.6"/>
    <circle cx="576" cy="738" r="6" fill="#77B08B"/>
    <text x="594" y="744" fill="#A89988" font-family="Arial, Helvetica, sans-serif" font-size="18">
      ••••••••••
    </text>
  </g>

  <g>
    <rect x="550" y="796" width="340" height="64" rx="20" fill="url(#buttonPrimary)"/>
    <rect x="550.8" y="796.8" width="338.4" height="62.4" rx="19.2" stroke="#F2DBA6" stroke-opacity="0.3" stroke-width="1.6"/>
    <text x="720" y="836" text-anchor="middle" fill="#271608" font-family="Arial, Helvetica, sans-serif" font-size="18" font-weight="700">
      Entrar na plataforma
    </text>
  </g>
</svg>
