<svg width="1440" height="1024" viewBox="0 0 1440 1024" fill="none" xmlns="http://www.w3.org/2000/svg">
  <defs>
    <linearGradient id="bgBase" x1="182" y1="84" x2="1248" y2="946" gradientUnits="userSpaceOnUse">
      <stop offset="0" stop-color="#0D0A09"/>
      <stop offset="0.36" stop-color="#14100E"/>
      <stop offset="0.72" stop-color="#11100F"/>
      <stop offset="1" stop-color="#090808"/>
    </linearGradient>
    <radialGradient id="nebulaMain" cx="0" cy="0" r="1" gradientUnits="userSpaceOnUse" gradientTransform="translate(720 490) rotate(90) scale(460 300)">
      <stop stop-color="#C98022" stop-opacity="0.24"/>
      <stop offset="0.48" stop-color="#A45B15" stop-opacity="0.14"/>
      <stop offset="1" stop-color="#A45B15" stop-opacity="0"/>
    </radialGradient>
    <radialGradient id="nebulaRight" cx="0" cy="0" r="1" gradientUnits="userSpaceOnUse" gradientTransform="translate(1092 256) rotate(163) scale(400 286)">
      <stop stop-color="#365E48" stop-opacity="0.18"/>
      <stop offset="1" stop-color="#365E48" stop-opacity="0"/>
    </radialGradient>
    <radialGradient id="nebulaBottom" cx="0" cy="0" r="1" gradientUnits="userSpaceOnUse" gradientTransform="translate(716 860) rotate(-90) scale(312 504)">
      <stop stop-color="#B9681A" stop-opacity="0.16"/>
      <stop offset="1" stop-color="#B9681A" stop-opacity="0"/>
    </radialGradient>
    <linearGradient id="beam" x1="720" y1="146" x2="720" y2="890" gradientUnits="userSpaceOnUse">
      <stop stop-color="#D8912A" stop-opacity="0"/>
      <stop offset="0.32" stop-color="#D8912A" stop-opacity="0.08"/>
      <stop offset="0.5" stop-color="#D8912A" stop-opacity="0.16"/>
      <stop offset="0.72" stop-color="#D8912A" stop-opacity="0.08"/>
      <stop offset="1" stop-color="#D8912A" stop-opacity="0"/>
    </linearGradient>
    <linearGradient id="cardFill" x1="720" y1="250" x2="720" y2="780" gradientUnits="userSpaceOnUse">
      <stop stop-color="#171210" stop-opacity="0.9"/>
      <stop offset="1" stop-color="#0F0C0B" stop-opacity="0.94"/>
    </linearGradient>
    <linearGradient id="cardStroke" x1="540" y1="232" x2="900" y2="788" gradientUnits="userSpaceOnUse">
      <stop stop-color="#6A4720" stop-opacity="0.78"/>
      <stop offset="0.4" stop-color="#BE8332" stop-opacity="0.72"/>
      <stop offset="1" stop-color="#4A3117" stop-opacity="0.78"/>
    </linearGradient>
    <linearGradient id="tabActive" x1="588" y1="444" x2="716" y2="444" gradientUnits="userSpaceOnUse">
      <stop stop-color="#4C3316"/>
      <stop offset="1" stop-color="#70471A"/>
    </linearGradient>
    <linearGradient id="buttonMain" x1="720" y1="744" x2="720" y2="804" gradientUnits="userSpaceOnUse">
      <stop stop-color="#E4AD41"/>
      <stop offset="1" stop-color="#BF7920"/>
    </linearGradient>
    <linearGradient id="titleGlow" x1="640" y1="80" x2="800" y2="124" gradientUnits="userSpaceOnUse">
      <stop stop-color="#8A5A20" stop-opacity="0"/>
      <stop offset="0.5" stop-color="#E5B65B" stop-opacity="0.22"/>
      <stop offset="1" stop-color="#8A5A20" stop-opacity="0"/>
    </linearGradient>
    <linearGradient id="headingPanel" x1="720" y1="370" x2="720" y2="444" gradientUnits="userSpaceOnUse">
      <stop stop-color="#211710" stop-opacity="0.9"/>
      <stop offset="1" stop-color="#17110D" stop-opacity="0.72"/>
    </linearGradient>
    <linearGradient id="headingStroke" x1="568" y1="368" x2="872" y2="446" gradientUnits="userSpaceOnUse">
      <stop stop-color="#6F4A1F" stop-opacity="0.18"/>
      <stop offset="0.5" stop-color="#D6A24A" stop-opacity="0.42"/>
      <stop offset="1" stop-color="#6F4A1F" stop-opacity="0.18"/>
    </linearGradient>
    <filter id="cardShadow" x="464" y="182" width="512" height="698" filterUnits="userSpaceOnUse" color-interpolation-filters="sRGB">
      <feFlood flood-opacity="0" result="BackgroundImageFix"/>
      <feColorMatrix in="SourceAlpha" type="matrix" values="0 0 0 0 0 0 0 0 0 0 0 0 0 0 0 0 0 0 127 0" result="hardAlpha"/>
      <feOffset dy="24"/>
      <feGaussianBlur stdDeviation="24"/>
      <feComposite in2="hardAlpha" operator="out"/>
      <feColorMatrix type="matrix" values="0 0 0 0 0.027451 0 0 0 0 0.0196078 0 0 0 0 0.00784314 0 0 0 0.68 0"/>
      <feBlend mode="normal" in2="BackgroundImageFix" result="effect1_dropShadow_1_1"/>
      <feBlend mode="normal" in="SourceGraphic" in2="effect1_dropShadow_1_1" result="shape"/>
    </filter>
    <pattern id="gridPattern" x="0" y="0" width="26" height="26" patternUnits="userSpaceOnUse">
      <path d="M26 0H0V26" stroke="#FAECD0" stroke-opacity="0.028"/>
    </pattern>
  </defs>

  <rect width="1440" height="1024" fill="url(#bgBase)"/>
  <rect width="1440" height="1024" fill="url(#gridPattern)"/>
  <rect x="650" y="132" width="140" height="774" fill="url(#beam)"/>
  <circle cx="720" cy="490" r="390" fill="url(#nebulaMain)"/>
  <circle cx="1092" cy="256" r="328" fill="url(#nebulaRight)"/>
  <circle cx="716" cy="860" r="286" fill="url(#nebulaBottom)"/>

  <path d="M176 806C294 716 430 676 600 662" stroke="#D39336" stroke-opacity="0.14" stroke-width="2"/>
  <path d="M1030 212C1130 250 1206 318 1272 422" stroke="#3E6650" stroke-opacity="0.14" stroke-width="2"/>
  <path d="M950 788C1096 824 1206 882 1292 972" stroke="#C68427" stroke-opacity="0.1" stroke-width="2"/>

  <g opacity="0.78">
    <circle cx="188" cy="134" r="2.2" fill="#FFF0D0"/>
    <circle cx="336" cy="228" r="1.8" fill="#D9A34D"/>
    <circle cx="498" cy="112" r="1.6" fill="#F0D39B"/>
    <circle cx="960" cy="138" r="1.6" fill="#F0D39B"/>
    <circle cx="1158" cy="210" r="1.8" fill="#D9A34D"/>
    <circle cx="1228" cy="122" r="2.2" fill="#FFF0D0"/>
    <circle cx="1172" cy="758" r="2" fill="#F0D39B"/>
    <circle cx="298" cy="866" r="2" fill="#F0D39B"/>
  </g>

  <rect x="616" y="64" width="208" height="42" rx="21" fill="url(#titleGlow)"/>
  <text x="720" y="92" text-anchor="middle" fill="#D7A14A" font-family="Arial, Helvetica, sans-serif" font-size="18" font-weight="700" letter-spacing="0.24em">
    STARTUP QUEST
  </text>

  <g filter="url(#cardShadow)">
    <rect x="516" y="222" width="408" height="602" rx="34" fill="url(#cardFill)"/>
    <rect x="517" y="223" width="406" height="600" rx="33" stroke="url(#cardStroke)" stroke-width="2"/>
  </g>

  <g>
    <circle cx="720" cy="318" r="46" fill="#1A1411"/>
    <circle cx="720" cy="318" r="46" stroke="#D89A35" stroke-opacity="0.44" stroke-width="2"/>
    <circle cx="720" cy="318" r="62" stroke="#D89A35" stroke-opacity="0.16" stroke-dasharray="8 10"/>
    <path d="M701 318C701 328.493 709.507 337 720 337C730.493 337 739 328.493 739 318C739 307.507 730.493 299 720 299C709.507 299 701 307.507 701 318Z" stroke="#D89A35" stroke-width="7"/>
    <path d="M747 326C744 337 734 348 719 356" stroke="#D89A35" stroke-width="7" stroke-linecap="round"/>
  </g>

  <g>
    <rect x="566" y="372" width="308" height="72" rx="22" fill="url(#headingPanel)"/>
    <rect x="566.8" y="372.8" width="306.4" height="70.4" rx="21.2" stroke="url(#headingStroke)" stroke-width="1.6"/>
    <text x="720" y="418" text-anchor="middle" fill="#F6ECDD" font-family="Arial, Helvetica, sans-serif" font-size="40" font-weight="700">
      Entre na plataforma
    </text>
  </g>

  <g>
    <rect x="584" y="468" width="272" height="56" rx="18" fill="#110E0C"/>
    <rect x="584.8" y="468.8" width="270.4" height="54.4" rx="17.2" stroke="#45301C" stroke-width="1.6"/>
    <rect x="590" y="474" width="130" height="44" rx="14" fill="url(#tabActive)"/>
    <rect x="590.8" y="474.8" width="128.4" height="42.4" rx="13.2" stroke="#C58531" stroke-opacity="0.34" stroke-width="1.6"/>
    <text x="655" y="503" text-anchor="middle" fill="#F7E2B6" font-family="Arial, Helvetica, sans-serif" font-size="15" font-weight="700">
      Entrar
    </text>
    <text x="791" y="503" text-anchor="middle" fill="#9F8C76" font-family="Arial, Helvetica, sans-serif" font-size="15" font-weight="700">
      Criar conta
    </text>
  </g>

  <g>
    <text x="584" y="578" fill="#E7D4B1" font-family="Arial, Helvetica, sans-serif" font-size="12" font-weight="700" letter-spacing="0.12em">
      E-MAIL
    </text>
    <rect x="584" y="590" width="272" height="62" rx="20" fill="#0D0B0A"/>
    <rect x="584.8" y="590.8" width="270.4" height="60.4" rx="19.2" stroke="#493320" stroke-width="1.6"/>
    <circle cx="608" cy="621" r="5.5" fill="#D59A34"/>
    <text x="624" y="627" fill="#A89988" font-family="Arial, Helvetica, sans-serif" font-size="16">
      voce@startup.quest
    </text>
  </g>

  <g>
    <text x="584" y="682" fill="#E7D4B1" font-family="Arial, Helvetica, sans-serif" font-size="12" font-weight="700" letter-spacing="0.12em">
      SENHA
    </text>
    <rect x="584" y="694" width="272" height="62" rx="20" fill="#0D0B0A"/>
    <rect x="584.8" y="694.8" width="270.4" height="60.4" rx="19.2" stroke="#493320" stroke-width="1.6"/>
    <circle cx="608" cy="725" r="5.5" fill="#78AE8B"/>
    <text x="624" y="731" fill="#A89988" font-family="Arial, Helvetica, sans-serif" font-size="17">
      ••••••••••
    </text>
  </g>

  <g>
    <rect x="584" y="780" width="272" height="60" rx="20" fill="url(#buttonMain)"/>
    <rect x="584.8" y="780.8" width="270.4" height="58.4" rx="19.2" stroke="#F0D8A5" stroke-opacity="0.28" stroke-width="1.6"/>
    <text x="720" y="818" text-anchor="middle" fill="#2B1807" font-family="Arial, Helvetica, sans-serif" font-size="17" font-weight="700">
      Entrar na plataforma
    </text>
  </g>
</svg>
