<svg width="1440" height="1024" viewBox="0 0 1440 1024" fill="none" xmlns="http://www.w3.org/2000/svg">
  <defs>
    <linearGradient id="bgBase" x1="154" y1="80" x2="1266" y2="950" gradientUnits="userSpaceOnUse">
      <stop offset="0" stop-color="#0B0908"/>
      <stop offset="0.38" stop-color="#14100E"/>
      <stop offset="0.72" stop-color="#100F0E"/>
      <stop offset="1" stop-color="#080707"/>
    </linearGradient>
    <radialGradient id="emberCenter" cx="0" cy="0" r="1" gradientUnits="userSpaceOnUse" gradientTransform="translate(720 514) rotate(90) scale(430 610)">
      <stop stop-color="#C57A20" stop-opacity="0.2"/>
      <stop offset="0.48" stop-color="#8E4D16" stop-opacity="0.1"/>
      <stop offset="1" stop-color="#8E4D16" stop-opacity="0"/>
    </radialGradient>
    <radialGradient id="greenNebula" cx="0" cy="0" r="1" gradientUnits="userSpaceOnUse" gradientTransform="translate(1084 446) rotate(150) scale(430 340)">
      <stop stop-color="#355B47" stop-opacity="0.24"/>
      <stop offset="1" stop-color="#355B47" stop-opacity="0"/>
    </radialGradient>
    <linearGradient id="centerBeam" x1="720" y1="108" x2="720" y2="964" gradientUnits="userSpaceOnUse">
      <stop stop-color="#D38E2E" stop-opacity="0"/>
      <stop offset="0.28" stop-color="#D38E2E" stop-opacity="0.06"/>
      <stop offset="0.52" stop-color="#D38E2E" stop-opacity="0.14"/>
      <stop offset="0.8" stop-color="#D38E2E" stop-opacity="0.05"/>
      <stop offset="1" stop-color="#D38E2E" stop-opacity="0"/>
    </linearGradient>
    <linearGradient id="cardFill" x1="720" y1="238" x2="720" y2="844" gradientUnits="userSpaceOnUse">
      <stop stop-color="#181310" stop-opacity="0.96"/>
      <stop offset="1" stop-color="#0E0C0B" stop-opacity="0.98"/>
    </linearGradient>
    <linearGradient id="cardStroke" x1="374" y1="238" x2="1066" y2="844" gradientUnits="userSpaceOnUse">
      <stop stop-color="#573617" stop-opacity="0.86"/>
      <stop offset="0.48" stop-color="#C28534" stop-opacity="0.78"/>
      <stop offset="1" stop-color="#332317" stop-opacity="0.9"/>
    </linearGradient>
    <linearGradient id="selectedFill" x1="462" y1="618" x2="978" y2="702" gradientUnits="userSpaceOnUse">
      <stop stop-color="#2A1D12"/>
      <stop offset="1" stop-color="#132018"/>
    </linearGradient>
    <linearGradient id="buttonFill" x1="720" y1="768" x2="720" y2="834" gradientUnits="userSpaceOnUse">
      <stop stop-color="#E8B349"/>
      <stop offset="1" stop-color="#C07A22"/>
    </linearGradient>
    <filter id="cardShadow" x="306" y="178" width="828" height="750" filterUnits="userSpaceOnUse" color-interpolation-filters="sRGB">
      <feFlood flood-opacity="0" result="BackgroundImageFix"/>
      <feColorMatrix in="SourceAlpha" type="matrix" values="0 0 0 0 0 0 0 0 0 0 0 0 0 0 0 0 0 0 127 0" result="hardAlpha"/>
      <feOffset dy="28"/>
      <feGaussianBlur stdDeviation="34"/>
      <feComposite in2="hardAlpha" operator="out"/>
      <feColorMatrix type="matrix" values="0 0 0 0 0.028 0 0 0 0 0.02 0 0 0 0 0.012 0 0 0 0.76 0"/>
      <feBlend mode="normal" in2="BackgroundImageFix" result="effect1_dropShadow_segmento"/>
      <feBlend mode="normal" in="SourceGraphic" in2="effect1_dropShadow_segmento" result="shape"/>
    </filter>
    <filter id="selectedGlow" x="420" y="580" width="600" height="166" filterUnits="userSpaceOnUse" color-interpolation-filters="sRGB">
      <feFlood flood-opacity="0" result="BackgroundImageFix"/>
      <feBlend mode="normal" in="SourceGraphic" in2="BackgroundImageFix" result="shape"/>
      <feGaussianBlur stdDeviation="18" result="effect1_foregroundBlur_selected"/>
    </filter>
    <pattern id="gridPattern" x="0" y="0" width="28" height="28" patternUnits="userSpaceOnUse">
      <path d="M28 0H0V28" stroke="#FAECD0" stroke-opacity="0.022"/>
    </pattern>
  </defs>

  <rect width="1440" height="1024" fill="url(#bgBase)"/>
  <rect width="1440" height="1024" fill="url(#gridPattern)"/>
  <rect x="642" y="108" width="156" height="856" fill="url(#centerBeam)"/>
  <circle cx="720" cy="514" r="430" fill="url(#emberCenter)"/>
  <circle cx="1084" cy="446" r="360" fill="url(#greenNebula)"/>

  <path d="M150 820C314 690 506 638 700 636" stroke="#CB862B" stroke-opacity="0.1" stroke-width="2"/>
  <path d="M1030 188C1134 232 1208 308 1274 424" stroke="#3F6752" stroke-opacity="0.12" stroke-width="2"/>
  <path d="M940 798C1086 820 1198 874 1304 966" stroke="#C88428" stroke-opacity="0.07" stroke-width="2"/>

  <g opacity="0.82">
    <circle cx="168" cy="124" r="2.2" fill="#F9E9C8"/>
    <circle cx="312" cy="214" r="1.8" fill="#D7A150"/>
    <circle cx="498" cy="112" r="1.6" fill="#F1D39D"/>
    <circle cx="966" cy="142" r="1.6" fill="#F1D39D"/>
    <circle cx="1160" cy="206" r="1.8" fill="#D7A150"/>
    <circle cx="1236" cy="126" r="2.2" fill="#F9E9C8"/>
    <circle cx="1178" cy="770" r="2" fill="#F1D39D"/>
    <circle cx="292" cy="864" r="2" fill="#F1D39D"/>
  </g>

  <text x="720" y="80" text-anchor="middle" fill="#D8A34A" font-family="Arial, Helvetica, sans-serif" font-size="16" font-weight="700" letter-spacing="0.22em">
    STARTUP QUEST
  </text>

  <g>
    <circle cx="720" cy="154" r="36" fill="#191412"/>
    <circle cx="720" cy="154" r="35" stroke="#D19134" stroke-opacity="0.36" stroke-width="1.8"/>
    <path d="M704 154C704 162.837 711.163 170 720 170C728.837 170 736 162.837 736 154C736 145.163 728.837 138 720 138C711.163 138 704 145.163 704 154Z" stroke="#D89A35" stroke-width="5.2"/>
    <path d="M742 160C739.8 168.4 732.4 176.7 721.2 182.2" stroke="#D89A35" stroke-width="5.2" stroke-linecap="round"/>
  </g>

  <g aria-label="Progresso da jornada">
    <path d="M492 218H948" stroke="#5B4027" stroke-width="2"/>
    <path d="M492 218H834" stroke="#9AC8AB" stroke-width="3" stroke-linecap="round"/>
    <path d="M834 218H948" stroke="#D89A35" stroke-width="3" stroke-linecap="round"/>

    <g>
      <circle cx="492" cy="218" r="18" fill="#142018"/>
      <circle cx="492" cy="218" r="17" stroke="#9AC8AB" stroke-width="2"/>
      <path d="M484 218L490 224L501 212" stroke="#9AC8AB" stroke-width="2.4" stroke-linecap="round" stroke-linejoin="round"/>
      <text x="492" y="258" text-anchor="middle" fill="#9AC8AB" font-family="Arial, Helvetica, sans-serif" font-size="12" font-weight="700" letter-spacing="0.12em">NOME</text>
    </g>

    <g>
      <circle cx="720" cy="218" r="18" fill="#142018"/>
      <circle cx="720" cy="218" r="17" stroke="#9AC8AB" stroke-width="2"/>
      <path d="M712 218L718 224L729 212" stroke="#9AC8AB" stroke-width="2.4" stroke-linecap="round" stroke-linejoin="round"/>
      <text x="720" y="258" text-anchor="middle" fill="#9AC8AB" font-family="Arial, Helvetica, sans-serif" font-size="12" font-weight="700" letter-spacing="0.12em">IDEIA</text>
    </g>

    <g>
      <circle cx="948" cy="218" r="22" fill="#2A1B0F"/>
      <circle cx="948" cy="218" r="21" stroke="#D89A35" stroke-width="2.4"/>
      <text x="948" y="225" text-anchor="middle" fill="#F7E2B6" font-family="Arial, Helvetica, sans-serif" font-size="18" font-weight="700">3</text>
      <text x="948" y="258" text-anchor="middle" fill="#D89A35" font-family="Arial, Helvetica, sans-serif" font-size="12" font-weight="700" letter-spacing="0.12em">SEGMENTO</text>
    </g>
  </g>

  <g filter="url(#cardShadow)">
    <path d="M414 286H1026L1066 326V804L1026 844H414L374 804V326L414 286Z" fill="url(#cardFill)"/>
    <path d="M414.7 286.9H1025.6L1065.1 326.4V803.6L1025.6 843.1H414.7L375.2 803.6V326.4L414.7 286.9Z" stroke="url(#cardStroke)" stroke-width="1.8"/>
    <path d="M434 306H1006L1046 346V784L1006 824H434L394 784V346L434 306Z" stroke="#D89333" stroke-opacity="0.12" stroke-width="1.4"/>
  </g>

  <g>
    <rect x="462" y="344" width="206" height="38" rx="19" fill="#211711"/>
    <rect x="462.8" y="344.8" width="204.4" height="36.4" rx="18.2" stroke="#6A4A28" stroke-width="1.4"/>
    <text x="565" y="369" text-anchor="middle" fill="#D7AF79" font-family="Arial, Helvetica, sans-serif" font-size="12" font-weight="700" letter-spacing="0.2em">
      ETAPA 3 / 5
    </text>
  </g>

  <text x="462" y="454" fill="#F4E5CA" font-family="Arial, Helvetica, sans-serif" font-size="60" font-weight="700" letter-spacing="-0.05em">
    Qual e o territorio
  </text>
  <text x="462" y="512" fill="#F4E5CA" font-family="Arial, Helvetica, sans-serif" font-size="60" font-weight="700" letter-spacing="-0.05em">
    dessa ideia?
  </text>

  <text x="462" y="558" fill="#A28B72" font-family="Arial, Helvetica, sans-serif" font-size="18">
    Escolha um ponto de partida. Depois a startup pode evoluir para outros mercados.
  </text>

  <g filter="url(#selectedGlow)" opacity="0.22">
    <rect x="462" y="618" width="516" height="84" rx="28" fill="#9AC8AB"/>
  </g>

  <g>
    <rect x="462" y="618" width="516" height="84" rx="28" fill="url(#selectedFill)"/>
    <rect x="462.8" y="618.8" width="514.4" height="82.4" rx="27.2" stroke="#9AC8AB" stroke-opacity="0.86" stroke-width="1.6"/>
    <circle cx="506" cy="660" r="16" fill="#142018"/>
    <path d="M498 660L504 666L515 654" stroke="#9AC8AB" stroke-width="2.6" stroke-linecap="round" stroke-linejoin="round"/>
    <text x="540" y="654" fill="#F4E5CA" font-family="Arial, Helvetica, sans-serif" font-size="24" font-weight="700" letter-spacing="-0.04em">
      Alimentacao
    </text>
    <text x="540" y="680" fill="#9AC8AB" font-family="Arial, Helvetica, sans-serif" font-size="15">
      restaurantes, delivery, estoque, cozinha, desperdicio
    </text>
  </g>

  <g>
    <rect x="462" y="718" width="160" height="46" rx="23" fill="#11100F"/>
    <rect x="462.8" y="718.8" width="158.4" height="44.4" rx="22.2" stroke="#4A321E" stroke-width="1.4"/>
    <text x="542" y="747" text-anchor="middle" fill="#D6BD93" font-family="Arial, Helvetica, sans-serif" font-size="15" font-weight="700">Educacao</text>

    <rect x="636" y="718" width="126" height="46" rx="23" fill="#11100F"/>
    <rect x="636.8" y="718.8" width="124.4" height="44.4" rx="22.2" stroke="#4A321E" stroke-width="1.4"/>
    <text x="699" y="747" text-anchor="middle" fill="#D6BD93" font-family="Arial, Helvetica, sans-serif" font-size="15" font-weight="700">Saude</text>

    <rect x="776" y="718" width="202" height="46" rx="23" fill="#11100F"/>
    <rect x="776.8" y="718.8" width="200.4" height="44.4" rx="22.2" stroke="#4A321E" stroke-width="1.4"/>
    <text x="877" y="747" text-anchor="middle" fill="#D6BD93" font-family="Arial, Helvetica, sans-serif" font-size="15" font-weight="700">IA / Tecnologia</text>
  </g>

  <g>
    <rect x="462" y="782" width="142" height="46" rx="23" fill="#11100F"/>
    <rect x="462.8" y="782.8" width="140.4" height="44.4" rx="22.2" stroke="#4A321E" stroke-width="1.4"/>
    <text x="533" y="811" text-anchor="middle" fill="#D6BD93" font-family="Arial, Helvetica, sans-serif" font-size="15" font-weight="700">Financas</text>

    <rect x="618" y="782" width="180" height="46" rx="23" fill="#11100F"/>
    <rect x="618.8" y="782.8" width="178.4" height="44.4" rx="22.2" stroke="#4A321E" stroke-width="1.4"/>
    <text x="708" y="811" text-anchor="middle" fill="#D6BD93" font-family="Arial, Helvetica, sans-serif" font-size="15" font-weight="700">Sustentabilidade</text>

    <rect x="812" y="782" width="166" height="46" rx="23" fill="#11100F"/>
    <rect x="812.8" y="782.8" width="164.4" height="44.4" rx="22.2" stroke="#4A321E" stroke-width="1.4"/>
    <text x="895" y="811" text-anchor="middle" fill="#D6BD93" font-family="Arial, Helvetica, sans-serif" font-size="15" font-weight="700">Outro territorio</text>
  </g>

  <g>
    <rect x="462" y="858" width="516" height="66" rx="24" fill="url(#buttonFill)"/>
    <rect x="462.8" y="858.8" width="514.4" height="64.4" rx="23.2" stroke="#F0D7A4" stroke-opacity="0.24" stroke-width="1.6"/>
    <text x="720" y="900" text-anchor="middle" fill="#2B1807" font-family="Arial, Helvetica, sans-serif" font-size="19" font-weight="700">
      Continuar para o problema
    </text>
  </g>

  <g opacity="0.78">
    <text x="1088" y="620" fill="#8F7A66" font-family="Arial, Helvetica, sans-serif" font-size="14" font-weight="700" letter-spacing="0.12em">
      NOTA DO QUEST
    </text>
    <text x="1088" y="660" fill="#D6BD93" font-family="Arial, Helvetica, sans-serif" font-size="22" font-weight="700" letter-spacing="-0.04em">
      Segmento nao e prisao.
    </text>
    <text x="1088" y="692" fill="#8F7A66" font-family="Arial, Helvetica, sans-serif" font-size="15">
      E so o primeiro mapa
    </text>
    <text x="1088" y="716" fill="#8F7A66" font-family="Arial, Helvetica, sans-serif" font-size="15">
      para organizar perguntas,
    </text>
    <text x="1088" y="740" fill="#8F7A66" font-family="Arial, Helvetica, sans-serif" font-size="15">
      exemplos e proximas missoes.
    </text>
  </g>
</svg>
